<svg width="20" height="21" viewBox="0 0 20 21" fill="none" xmlns="http://www.w3.org/2000/svg">
<path d="M13.7929 13.0317C14.2383 13.4771 13.9229 14.2388 13.2929 14.2388V14.2388C13.1054 14.2388 12.9255 14.1643 12.7929 14.0317L10 11.2388L7 14.2388V14.2388C6.26195 14.2388 5.89234 13.3465 6.41422 12.8246L9 10.2388L6.05291 7.29171C5.66436 6.90316 5.93954 6.2388 6.48904 6.2388V6.2388C6.8162 6.2388 7.12996 6.36876 7.3613 6.6001L10 9.23882L12.7929 6.44591C12.9255 6.3133 13.1054 6.2388 13.2929 6.2388V6.2388C13.9229 6.2388 14.2383 7.00045 13.7929 7.4459L11 10.2388L13.7929 13.0317ZM10 20.2388C8.68678 20.2388 7.38642 19.9802 6.17317 19.4776C4.95991 18.9751 3.85752 18.2385 2.92893 17.3099C2.00035 16.3813 1.26375 15.2789 0.761204 14.0657C0.258657 12.8524 2.82586e-07 11.552 3.97391e-07 10.2388C6.2925e-07 7.58666 1.05357 5.04311 2.92893 3.16775C4.8043 1.29239 7.34784 0.238818 10 0.238819C11.3132 0.238819 12.6136 0.497476 13.8268 1.00002C15.0401 1.50257 16.1425 2.23917 17.0711 3.16775C18.9464 5.04311 20 7.58666 20 10.2388C20 12.891 18.9464 15.4345 17.0711 17.3099C15.1957 19.1853 12.6522 20.2388 10 20.2388ZM10 18.2388C12.1217 18.2388 14.1566 17.396 15.6569 15.8957C17.1571 14.3954 18 12.3606 18 10.2388C18 8.11709 17.1571 6.08226 15.6569 4.58197C14.1566 3.08168 12.1217 2.23882 10 2.23882C7.87827 2.23882 5.84344 3.08168 4.34315 4.58196C2.84286 6.08225 2 8.11709 2 10.2388C2 12.3606 2.84285 14.3954 4.34315 15.8957C5.84344 17.396 7.87827 18.2388 10 18.2388Z" fill="#574AE8"/>
</svg>
