<svg width="20" height="20" viewBox="0 0 20 20" fill="none" xmlns="http://www.w3.org/2000/svg">
<path d="M19.0819 13.0822C18.4762 15.0594 17.2624 16.7951 15.6131 18.0425C14.1651 19.1323 12.442 19.797 10.6373 19.9619C8.83251 20.1268 7.0175 19.7855 5.39595 18.9762C3.77441 18.1669 2.41053 16.9216 1.45738 15.3802C0.504237 13.8388 -0.000438791 12.0623 1.06333e-07 10.25C-0.00651586 8.13468 0.68115 6.07564 1.9575 4.38876C3.20488 2.7395 4.94065 1.52567 6.91781 0.920006C7.04812 0.879881 7.18691 0.876039 7.31924 0.908892C7.45157 0.941746 7.57244 1.01005 7.66885 1.10647C7.76527 1.20288 7.83357 1.32375 7.86643 1.45608C7.89928 1.58841 7.89544 1.7272 7.85531 1.85751C7.42298 3.2876 7.38673 4.80819 7.75043 6.25725C8.11413 7.70632 8.86415 9.02957 9.92058 10.086C10.977 11.1424 12.3002 11.8924 13.7493 12.2561C15.1984 12.6198 16.719 12.5836 18.1491 12.1513C18.2794 12.1111 18.4182 12.1073 18.5505 12.1401C18.6828 12.173 18.8037 12.2413 18.9001 12.3377C18.9965 12.4341 19.0648 12.555 19.0977 12.6873C19.1305 12.8197 19.1267 12.9584 19.0866 13.0888L19.0819 13.0822Z" fill="white"/>
</svg>
