<svg width="33" height="31" viewBox="0 0 33 31" fill="none" xmlns="http://www.w3.org/2000/svg">
<path d="M7.992 4.744L7.54478 3.84957L7.52882 3.85756L7.51315 3.8661L7.992 4.744ZM7.48 5.608L6.50719 5.37638L6.50192 5.39852L6.49766 5.42089L7.48 5.608ZM6.968 13L6.04886 12.6061L6.04531 12.6144L6.04191 12.6227L6.968 13ZM6.136 14.408L5.38616 13.7464L5.38616 13.7464L6.136 14.408ZM5.24 15.24L4.67079 14.4178L3.51219 15.2199L4.65183 16.0487L5.24 15.24ZM6.072 16.04L5.32216 16.7016L5.34282 16.725L5.36489 16.7471L6.072 16.04ZM6.968 17.32L6.07357 17.7672L6.07743 17.7749L6.08142 17.7826L6.968 17.32ZM7.48 24.936L6.49766 25.1231L6.50192 25.1455L6.50719 25.1676L7.48 24.936ZM7.992 25.8L7.51315 26.6779L7.52882 26.6864L7.54479 26.6944L7.992 25.8ZM10.232 25.992H11.232V24.992H10.232V25.992ZM10.232 29.896V30.896H11.232V29.896H10.232ZM5.912 29.864L5.87499 30.8633L5.87631 30.8634L5.912 29.864ZM4.312 29.512L4.71073 28.5949L4.69369 28.5875L4.6764 28.5808L4.312 29.512ZM3.128 28.392L2.24078 28.8534L2.24411 28.8598L2.24753 28.8661L3.128 28.392ZM2.424 18.984L1.47525 19.3002L1.47901 19.3111L2.424 18.984ZM1.56 17.576L2.24662 16.849L1.56 17.576ZM0.12 17.032H-0.88V18.032H0.12V17.032ZM0.12 13.32L0.0829877 12.3207L-0.88 12.3564V13.32H0.12ZM1.56 12.776L2.22436 13.5234L2.23565 13.5134L2.24662 13.503L1.56 12.776ZM2.424 11.4L3.36905 11.7271L3.37268 11.7162L2.424 11.4ZM3.128 2.184L2.24078 1.72265L2.24078 1.72265L3.128 2.184ZM4.248 1.064L3.84927 0.146929L3.84171 0.150219L3.8342 0.153633L4.248 1.064ZM5.88 0.711998L5.91569 1.71136L5.93349 1.71073L5.95125 1.70946L5.88 0.711998ZM10.232 0.647999H11.232V-0.352001H10.232V0.647999ZM10.232 4.552V5.552H11.232V4.552H10.232ZM9.048 3.552C8.52376 3.552 7.99629 3.62382 7.54478 3.84957L8.43922 5.63843C8.49972 5.60818 8.67624 5.552 9.048 5.552V3.552ZM7.51315 3.8661C6.8992 4.20098 6.63457 4.84138 6.50719 5.37638L8.45281 5.83962C8.49093 5.67952 8.52943 5.59763 8.54829 5.5658C8.56482 5.5379 8.54674 5.5805 8.47085 5.6219L7.51315 3.8661ZM6.49766 5.42089C6.39352 5.96763 6.352 6.76248 6.352 7.752H8.352C8.352 6.77885 8.39581 6.14436 8.46234 5.79511L6.49766 5.42089ZM6.352 7.752V10.888H8.352V7.752H6.352ZM6.352 10.888C6.352 11.5957 6.24006 12.1599 6.04886 12.6061L7.88715 13.3939C8.20794 12.6454 8.352 11.8017 8.352 10.888H6.352ZM6.04191 12.6227C5.83811 13.1229 5.61407 13.4881 5.38616 13.7464L6.88584 15.0696C7.29793 14.6026 7.62856 14.0291 7.89409 13.3773L6.04191 12.6227ZM5.38616 13.7464C5.09866 14.0722 4.85982 14.2869 4.67079 14.4178L5.80921 16.0622C6.17485 15.8091 6.53334 15.4691 6.88584 15.0696L5.38616 13.7464ZM4.65183 16.0487C4.80131 16.1574 5.02307 16.3627 5.32216 16.7016L6.82184 15.3784C6.48093 14.992 6.14803 14.6639 5.82817 14.4313L4.65183 16.0487ZM5.36489 16.7471C5.61761 16.9998 5.85695 17.334 6.07357 17.7672L7.86243 16.8728C7.56705 16.282 7.20906 15.7628 6.77911 15.3329L5.36489 16.7471ZM6.08142 17.7826C6.25449 18.1143 6.352 18.5072 6.352 18.984H8.352C8.352 18.2235 8.19351 17.507 7.85459 16.8574L6.08142 17.7826ZM6.352 18.984V22.824H8.352V18.984H6.352ZM6.352 22.824C6.352 23.7938 6.39366 24.5771 6.49766 25.1231L8.46234 24.7489C8.39567 24.3989 8.352 23.7742 8.352 22.824H6.352ZM6.50719 25.1676C6.63457 25.7026 6.8992 26.343 7.51315 26.6779L8.47085 24.9221C8.54674 24.9635 8.56482 25.0061 8.54829 24.9782C8.52943 24.9464 8.49093 24.8645 8.45281 24.7044L6.50719 25.1676ZM7.54479 26.6944C7.99629 26.9202 8.52376 26.992 9.048 26.992V24.992C8.67624 24.992 8.49971 24.9358 8.43921 24.9056L7.54479 26.6944ZM9.048 26.992H10.232V24.992H9.048V26.992ZM9.232 25.992V29.896H11.232V25.992H9.232ZM10.232 28.896H7.704V30.896H10.232V28.896ZM7.704 28.896C7.11858 28.896 6.53314 28.8855 5.94769 28.8646L5.87631 30.8634C6.48553 30.8851 7.09476 30.896 7.704 30.896V28.896ZM5.94901 28.8647C5.48796 28.8476 5.07843 28.7548 4.71073 28.5949L3.91327 30.4291C4.5269 30.6959 5.18404 30.8377 5.87499 30.8633L5.94901 28.8647ZM4.6764 28.5808C4.44783 28.4913 4.21774 28.3065 4.00847 27.9179L2.24753 28.8661C2.63559 29.5868 3.19483 30.1487 3.9476 30.4432L4.6764 28.5808ZM4.01522 27.9306C3.84696 27.6071 3.712 27.0179 3.712 26.056H1.712C1.712 27.1421 1.85438 28.1103 2.24078 28.8534L4.01522 27.9306ZM3.712 26.056V20.776H1.712V26.056H3.712ZM3.712 20.776C3.712 20.0347 3.60055 19.3259 3.36899 18.6569L1.47901 19.3111C1.63145 19.7515 1.712 20.2373 1.712 20.776H3.712ZM3.37268 18.6678C3.13639 17.9589 2.76736 17.3408 2.24662 16.849L0.873376 18.303C1.12064 18.5365 1.32761 18.8571 1.47532 19.3002L3.37268 18.6678ZM2.24662 16.849C1.65943 16.2944 0.9261 16.032 0.12 16.032V18.032C0.4659 18.032 0.692573 18.1323 0.873377 18.303L2.24662 16.849ZM1.12 17.032V13.32H-0.88V17.032H1.12ZM0.157012 14.3193C0.934992 14.2905 1.64562 14.0378 2.22436 13.5234L0.895636 12.0286C0.706382 12.1968 0.457008 12.3068 0.0829877 12.3207L0.157012 14.3193ZM2.24662 13.503C2.76023 13.0179 3.13027 12.4167 3.36899 11.7271L1.47901 11.0729C1.33373 11.4926 1.12777 11.8087 0.873377 12.049L2.24662 13.503ZM3.37268 11.7162C3.60047 11.0329 3.712 10.3176 3.712 9.576H1.712C1.712 10.1144 1.63153 10.6151 1.47532 11.0838L3.37268 11.7162ZM3.712 9.576V4.52H1.712V9.576H3.712ZM3.712 4.52C3.712 3.55815 3.84696 2.96893 4.01522 2.64535L2.24078 1.72265C1.85438 2.46574 1.712 3.43385 1.712 4.52H3.712ZM4.01522 2.64535C4.20725 2.27605 4.42869 2.08033 4.6618 1.97437L3.8342 0.153633C3.12864 0.474339 2.60341 1.02528 2.24078 1.72265L4.01522 2.64535ZM4.64673 1.98107C5.00992 1.82316 5.42885 1.72875 5.91569 1.71136L5.84431 -0.287365C5.13649 -0.262084 4.46742 -0.121829 3.84927 0.146929L4.64673 1.98107ZM5.95125 1.70946C6.5241 1.66854 7.10833 1.648 7.704 1.648V-0.352001C7.06234 -0.352001 6.43056 -0.329875 5.80875 -0.285461L5.95125 1.70946ZM7.704 1.648H10.232V-0.352001H7.704V1.648ZM9.232 0.647999V4.552H11.232V0.647999H9.232ZM10.232 3.552H9.048V5.552H10.232V3.552ZM32.106 21.64L31.1432 21.3696L31.1405 21.3796L32.106 21.64ZM30.122 26.696L29.246 26.2136L29.2431 26.2189L30.122 26.696ZM27.53 30.376L27.1114 31.2842L27.7598 31.583L28.253 31.0669L27.53 30.376ZM23.85 28.68L23.0943 28.0251L22.2225 29.031L23.4314 29.5882L23.85 28.68ZM26.09 25.288L25.2016 24.829L25.1985 24.8349L26.09 25.288ZM27.658 20.936L28.6311 21.1665L28.6317 21.1636L27.658 20.936ZM27.658 10.152L26.6842 10.3796L26.6849 10.3825L27.658 10.152ZM26.09 5.768L25.1985 6.22106L25.2016 6.22702L26.09 5.768ZM23.85 2.408L23.425 1.50282L22.215 2.07098L23.1017 3.07131L23.85 2.408ZM27.53 0.679998L28.253 -0.0108593L27.7561 -0.530908L27.105 -0.225177L27.53 0.679998ZM32.106 9.448L31.1404 9.70839L31.1441 9.72128L32.106 9.448ZM31.906 15.528C31.906 17.6219 31.6495 19.5675 31.1433 21.3696L33.0687 21.9104C33.6292 19.9152 33.906 17.7861 33.906 15.528H31.906ZM31.1405 21.3796C30.6459 23.2137 30.0122 24.8224 29.2461 26.2136L30.9979 27.1784C31.8531 25.6256 32.5421 23.8636 33.0715 21.9004L31.1405 21.3796ZM29.2431 26.2189C28.4636 27.6549 27.6489 28.8041 26.807 29.6851L28.253 31.0669C29.2458 30.0279 30.1591 28.7237 31.0009 27.1731L29.2431 26.2189ZM27.9486 29.4678L24.2686 27.7718L23.4314 29.5882L27.1114 31.2842L27.9486 29.4678ZM24.6057 29.3349C25.4982 28.3051 26.2886 27.1044 26.9815 25.7411L25.1985 24.8349C24.5687 26.0742 23.8658 27.1349 23.0943 28.0251L24.6057 29.3349ZM26.9784 25.747C27.6825 24.3843 28.2311 22.8551 28.6311 21.1665L26.6849 20.7055C26.3169 22.2596 25.8202 23.6317 25.2016 24.829L26.9784 25.747ZM28.6317 21.1636C29.0358 19.4354 29.234 17.5552 29.234 15.528H27.234C27.234 17.4262 27.0482 19.1513 26.6843 20.7084L28.6317 21.1636ZM29.234 15.528C29.234 13.5011 29.0358 11.6303 28.6311 9.92153L26.6849 10.3825C27.0482 11.9163 27.234 13.6296 27.234 15.528H29.234ZM28.6317 9.92437C28.2321 8.21465 27.6834 6.67351 26.9784 5.30898L25.2016 6.22702C25.8192 7.42249 26.3159 8.80402 26.6843 10.3796L28.6317 9.92437ZM26.9815 5.31495C26.2877 3.94979 25.4951 2.75646 24.5983 1.74469L23.1017 3.07131C23.8689 3.93687 24.5696 4.98354 25.1985 6.22105L26.9815 5.31495ZM24.275 3.31317L27.955 1.58517L27.105 -0.225177L23.425 1.50282L24.275 3.31317ZM26.807 1.37086C27.6489 2.25187 28.4636 3.40106 29.2431 4.83709L31.0009 3.88291C30.1591 2.33227 29.2458 1.02812 28.253 -0.0108593L26.807 1.37086ZM29.2431 4.83709C30.0113 6.25207 30.6457 7.87356 31.1405 9.70836L33.0715 9.18764C32.5423 7.2251 31.8541 5.45459 31.0009 3.88291L29.2431 4.83709ZM31.1441 9.72128C31.6494 11.5002 31.906 13.4339 31.906 15.528H33.906C33.906 13.2701 33.6292 11.1505 33.0679 9.17472L31.1441 9.72128Z" fill="#FFF"/>
</svg>
